<?xml version="1.0" encoding="utf-8"?>
<!-- Generator: Adobe Illustrator 24.1.1, SVG Export Plug-In . SVG Version: 6.00 Build 0)  -->
<svg version="1.1" id="Слой_1" xmlns="http://www.w3.org/2000/svg" xmlns:xlink="http://www.w3.org/1999/xlink" x="0px" y="0px"
	 viewBox="0 0 246 53" style="enable-background:new 0 0 246 53;" xml:space="preserve">
<style type="text/css">
	.st0{fill:#1B75BC;}
	.st1{fill:#8DC63F;}
	.st2{fill:#FFFFFF;stroke:#000000;stroke-width:0.75;stroke-miterlimit:10;}
</style>
<g>
	<path class="st0" d="M177.5,37.9c-5.4,0-9.8-4.4-9.8-9.8s4.4-9.8,9.8-9.8s9.8,4.4,9.8,9.8S182.9,37.9,177.5,37.9z M177.5,14.9
		c-7.3,0-13.3,5.9-13.3,13.3v23h3.5V37.1c2.4,2.6,5.9,4.3,9.8,4.3c7.3,0,13.3-5.9,13.3-13.3C190.8,20.8,184.8,14.9,177.5,14.9z"/>
	<path class="st0" d="M207.1,37.9c-5.4,0-9.8-4.4-9.8-9.8s4.4-9.8,9.8-9.8c5.4,0,9.8,4.4,9.8,9.8S212.5,37.9,207.1,37.9z
		 M207.1,14.9c-7.3,0-13.3,5.9-13.3,13.3v23h3.5V37.1c2.4,2.6,5.9,4.3,9.8,4.3c7.3,0,13.3-5.9,13.3-13.3
		C220.4,20.8,214.5,14.9,207.1,14.9z"/>
	<path class="st0" d="M147.9,37.9c-5.4,0-9.8-4.4-9.8-9.8s4.4-9.8,9.8-9.8c5.4,0,9.8,4.4,9.8,9.8S153.3,37.9,147.9,37.9z
		 M161.1,26.4c-0.9-6.5-6.4-11.5-13.1-11.5c-7.3,0-13.3,5.9-13.3,13.3c0,7.3,5.9,13.3,13.3,13.3c3.9,0,7.3-1.7,9.8-4.3v4.3h3.5v-15
		H161.1z"/>
	<path class="st0" d="M233.4,41.4c-4.7,0-9.1-2.5-11.5-6.6l3-1.7c1.7,3,5,4.9,8.5,4.9c2.7,0,5.2-1.1,7.1-3.1
		c0.1-0.1,0.1-0.3,0.1-0.4c0-0.1-0.1-0.2-0.2-0.3l-15.8-9.1c-1-0.6-1.7-1.6-1.9-2.8c-0.2-1.2,0.2-2.4,1-3.3c2.5-2.6,6-4.1,9.6-4.1
		c4.7,0,9.1,2.5,11.5,6.6l-3,1.7c-1.7-3-5-4.9-8.5-4.9c-2.7,0-5.2,1.1-7.1,3.1c-0.1,0.1-0.1,0.3-0.1,0.4c0,0.1,0.1,0.2,0.2,0.3
		l15.8,9.1c1,0.6,1.7,1.6,1.9,2.8c0.2,1.2-0.2,2.4-1,3.3C240.5,39.9,237,41.4,233.4,41.4z"/>
</g>
<g>
	<path class="st1" d="M54.4,37.9c-5.4,0-9.8-4.4-9.8-9.8s4.4-9.8,9.8-9.8c5.4,0,9.8,4.4,9.8,9.8S59.8,37.9,54.4,37.9z M64.2,5.1
		v14.1c-2.4-2.6-5.9-4.3-9.8-4.3c-7.3,0-13.3,5.9-13.3,13.3c0,7.3,5.9,13.3,13.3,13.3s13.3-5.9,13.3-13.3v-23H64.2z"/>
	<path class="st1" d="M84,37.9c-5.4,0-9.8-4.4-9.8-9.8s4.4-9.8,9.8-9.8c5.4,0,9.8,4.4,9.8,9.8S89.4,37.9,84,37.9z M84,14.9
		c-7.3,0-13.3,5.9-13.3,13.3c0,7.3,5.9,13.3,13.3,13.3c3.9,0,7.3-1.7,9.8-4.3v14.1h3.5v-23C97.3,20.8,91.3,14.9,84,14.9z"/>
	<path class="st1" d="M113.6,18.4c-2.5,0-5,1-6.9,2.9c-1.8,1.8-2.9,4.3-2.9,6.9c0,2,0.6,3.9,1.7,5.6l13.6-13.6
		C117.5,19,115.6,18.4,113.6,18.4z M113.6,41.4c-3.4,0-6.8-1.3-9.4-3.9c-2.5-2.5-3.9-5.8-3.9-9.4c0-3.5,1.4-6.9,3.9-9.4
		c5.2-5.2,13.6-5.2,18.7,0l1.2,1.2l-16.2,16.2c3.8,2.6,9.1,2.3,12.5-1.1l2.5,2.5C120.4,40.1,117,41.4,113.6,41.4z"/>
	<path class="st1" d="M28.2,18.4c-2.5,0-5,1-6.9,2.9c-1.8,1.8-2.9,4.3-2.9,6.9c0,2,0.6,3.9,1.7,5.6l13.6-13.6
		C32.1,19,30.1,18.4,28.2,18.4z M28.2,41.4c-3.4,0-6.8-1.3-9.4-3.9c-2.5-2.5-3.9-5.8-3.9-9.4c0-3.5,1.4-6.9,3.9-9.4
		c5.2-5.2,13.6-5.2,18.7,0l1.2,1.2L22.6,36.2c3.8,2.6,9.1,2.3,12.5-1.1l2.5,2.5C35,40.1,31.6,41.4,28.2,41.4z"/>
	<path class="st1" d="M8.6,27.2H5.1v-0.4c0-12,9.7-21.7,21.7-21.7h0v3.5h0c-10.1,0-18.2,8.2-18.2,18.2V27.2z"/>
</g>
<path class="st2" d="M14.9,27.2"/>
<path class="st2" d="M8.6,27.2"/>
</svg>
