<svg xmlns="http://www.w3.org/2000/svg" viewBox="0 0 112.04 112.04"><defs><style>.cls-1{fill:#e62b33;}.cls-2{fill:#fff;}</style></defs><g id="Слой_2" data-name="Слой 2"><g id="_1" data-name="1"><path class="cls-1" d="M112,56A56,56,0,1,1,56,0,56,56,0,0,1,112,56Z"/><path class="cls-2" d="M79.84,55H78.62V53.89c0-1.54,0-3.08,0-4.62,0-.25-.27-.71-.42-.71-1.41-.06-2.82,0-4.3,0V55H67.44c0,.48,0,.81,0,1.13l.15,3.49c1.14,0,2.28.1,3.42.12.95,0,1.9,0,2.95,0V66h4.65V59.68H85V55Z"/><path class="cls-2" d="M61.58,54.42c-4,.06-8,0-12,0-1.15,0-2.3,0-3.45,0-.22,0-.61.27-.61.42,0,2.32,0,4.63,0,7.07h9.84c-.13.48-.21.82-.32,1.16-1.51,4.47-6.13,6.69-11.09,5.88A10.84,10.84,0,0,1,35,56.12a9.88,9.88,0,0,1,.78-2.47,10.84,10.84,0,0,1,12-6.11,10.41,10.41,0,0,1,4.62,2.4l5.38-5.42-.45-.35a17.67,17.67,0,0,0-14.92-4.1,18.39,18.39,0,0,0-15.1,15,18.18,18.18,0,0,0,1,9.75,18.53,18.53,0,0,0,19.38,11.7,16.54,16.54,0,0,0,10.67-5C62.6,67,63.69,61.58,63,55.6,62.9,54.6,62.5,54.41,61.58,54.42Z"/></g></g></svg>