<svg xmlns="http://www.w3.org/2000/svg" viewBox="0 0 112.04 112.04"><defs><style>.cls-1{fill:#2797cf;}.cls-2{fill:#fff;}</style></defs><g id="Слой_2" data-name="Слой 2"><g id="_1" data-name="1"><path class="cls-1" d="M112,56A56,56,0,1,1,56,0,56,56,0,0,1,112,56Z"/><polygon class="cls-2" points="24.27 53.85 24.27 86.35 39.76 86.35 39.76 51.24 39.76 42.11 24.27 42.11 24.27 53.85"/><path class="cls-2" d="M32,20a7.74,7.74,0,1,0,7.75,7.74A7.74,7.74,0,0,0,32,20Z"/><path class="cls-2" d="M90.29,55.7c-1.05-8.34-4.88-13.59-16.15-13.59-6.69,0-11.18,2.49-13,6h-.19v-6H48.6V86.35H61.49V64.43c0-5.79,1.1-11.38,8.25-11.38s7.61,6.61,7.61,11.75V86.35H90.63V62h0A50.35,50.35,0,0,0,90.29,55.7Z"/></g></g></svg>