<svg width="20" height="20" viewBox="0 0 20 20" fill="none" xmlns="http://www.w3.org/2000/svg">
<path fill-rule="evenodd" clip-rule="evenodd" d="M4.28607 0C3.14962 -8.37989e-08 2.05969 0.45134 1.25594 1.25478C0.452195 2.05822 0.000436425 3.14797 0 4.28442V15.7139C0 16.8507 0.451566 17.9408 1.25536 18.7446C2.05915 19.5484 3.14933 20 4.28607 20H15.7156C16.852 19.9996 17.9418 19.5478 18.7452 18.7441C19.5487 17.9403 20 16.8504 20 15.7139V4.28442C19.9996 3.14826 19.548 2.05875 18.7446 1.25536C17.9412 0.451969 16.8517 0.000436232 15.7156 0H4.28607ZM16.9484 4.29101C16.9484 4.61841 16.8183 4.9324 16.5868 5.1639C16.3553 5.39541 16.0413 5.52547 15.7139 5.52547C15.3865 5.52547 15.0725 5.39541 14.841 5.1639C14.6095 4.9324 14.4795 4.61841 14.4795 4.29101C14.4795 3.9636 14.6095 3.64961 14.841 3.41811C15.0725 3.1866 15.3865 3.05654 15.7139 3.05654C16.0413 3.05654 16.3553 3.1866 16.5868 3.41811C16.8183 3.64961 16.9484 3.9636 16.9484 4.29101ZM10.0025 6.57559C9.09448 6.57559 8.22368 6.93629 7.58163 7.57834C6.93958 8.22038 6.57888 9.09119 6.57888 9.99918C6.57888 10.9072 6.93958 11.778 7.58163 12.42C8.22368 13.0621 9.09448 13.4228 10.0025 13.4228C10.9105 13.4228 11.7813 13.0621 12.4233 12.42C13.0654 11.778 13.4261 10.9072 13.4261 9.99918C13.4261 9.09119 13.0654 8.22038 12.4233 7.57834C11.7813 6.93629 10.9105 6.57559 10.0025 6.57559ZM4.93128 9.99918C4.93128 8.65465 5.46539 7.36519 6.41612 6.41447C7.36684 5.46375 8.6563 4.92964 10.0008 4.92964C11.3453 4.92964 12.6348 5.46375 13.5855 6.41447C14.5363 7.36519 15.0704 8.65465 15.0704 9.99918C15.0704 11.3437 14.5363 12.6332 13.5855 13.5839C12.6348 14.5346 11.3453 15.0687 10.0008 15.0687C8.6563 15.0687 7.36684 14.5346 6.41612 13.5839C5.46539 12.6332 4.93128 11.3437 4.93128 9.99918Z" fill="#55BBEB"/>
</svg>
