<svg xmlns="http://www.w3.org/2000/svg" viewBox="0 0 112.04 112.04"><defs><style>.cls-1{fill:#864c2d;}.cls-2{fill:#fff;}</style></defs><g id="Слой_2" data-name="Слой 2"><g id="_1" data-name="1"><path class="cls-1" d="M112,56A56,56,0,1,1,56,0,56,56,0,0,1,112,56Z"/><path class="cls-2" d="M76.37,22.84H35.66A12.83,12.83,0,0,0,22.84,35.66V76.38A12.83,12.83,0,0,0,35.66,89.2H76.37A12.84,12.84,0,0,0,89.2,76.38V35.66A12.84,12.84,0,0,0,76.37,22.84Zm3.68,7.65h1.47V41.73l-11.21,0,0-11.25ZM46.55,49.21a11.64,11.64,0,0,1,18.94,0c.25.36.48.73.7,1.11a11.68,11.68,0,1,1-20.34,0A10.85,10.85,0,0,1,46.55,49.21ZM82.73,76.38a6.36,6.36,0,0,1-6.36,6.35H35.66a6.37,6.37,0,0,1-6.36-6.35V49.21h9.91a17.16,17.16,0,0,0-.64,1.87A17.92,17.92,0,0,0,37.88,56a18.14,18.14,0,1,0,36.28,0,17.92,17.92,0,0,0-.69-4.94,19.65,19.65,0,0,0-.65-1.87h9.91V76.38Z"/></g></g></svg>