<svg width="13" height="14" viewBox="0 0 13 14" fill="none" xmlns="http://www.w3.org/2000/svg">
<path d="M13 1.35612V5.7037C13 6.46154 12.4444 7.05983 11.7407 7.05983H8.25926C6.88889 7.05983 6.62963 7.97721 6.59259 8.37607V8.41595C6.55555 8.5755 6.55555 8.69516 6.55555 8.8547V12.6439C6.55555 13.4017 6 14 5.29629 14H1.25926C0.555556 14 0 13.4017 0 12.6439V8.29629C0 7.53846 0.555556 6.94017 1.25926 6.94017H4.74074C6.11111 6.94017 6.37037 6.02279 6.40741 5.62393V5.58405C6.44444 5.4245 6.44445 5.30484 6.44445 5.1453V1.35612C6.44445 0.598288 7 0 7.7037 0H11.7407C12.4444 0 13 0.598288 13 1.35612Z" fill="#90ED7B"/>
</svg>
