<svg width="73" height="41" viewBox="0 0 73 41" fill="none" xmlns="http://www.w3.org/2000/svg">
<path d="M15.0214 4.05314C14.8908 4.22564 14.7679 4.40581 14.6373 4.58981C14.3126 5.11967 14.0546 5.68747 13.8691 6.28035C13.4019 7.46533 13.1849 8.73384 13.2316 10.0064C10.543 6.84386 4.83558 4.35598 0 7.44955C15.7972 9.94127 22.6185 22.6376 19.1119 40.9958H19.2232C31.3295 30.3734 19.9914 19.0035 17.7829 15.1547C16.0891 12.1953 15.5745 8.86025 16.9149 6.5027C17.5256 5.52517 18.409 4.49015 19.5075 4.05697C20.3191 3.67215 21.2096 3.48213 22.1079 3.50209C23.0062 3.52206 23.8874 3.75146 24.681 4.17197C25.4256 4.56917 26.0643 5.13828 26.5438 5.83185C27.5808 7.36521 27.2889 10.0026 26.6552 11.0185C26.0215 12.0343 26.1636 11.7085 25.864 11.996C25.0766 12.7282 23.5326 12.7627 22.8259 12.3793C22.4129 12.22 22.0782 11.9065 21.8926 11.5053C21.8653 11.4567 21.8511 11.4019 21.8511 11.3462C21.8511 11.2905 21.8653 11.2357 21.8926 11.1871C21.9212 11.1421 21.9595 11.1039 22.0046 11.0754C22.0498 11.0469 22.1007 11.0288 22.1538 11.0223C22.5892 11.0204 23.0165 10.9048 23.3931 10.6869C23.7698 10.469 24.0828 10.1564 24.3008 9.78026C24.5819 9.27681 24.6814 8.69237 24.5829 8.12448C24.4843 7.5566 24.1936 7.03963 23.7592 6.65987C23.3928 6.37109 22.9621 6.17439 22.5036 6.08633C22.0451 5.99827 21.5721 6.02143 21.1244 6.15385C17.4641 7.28088 17.8597 12.9965 21.2896 14.8365C22.0772 15.2743 22.9615 15.5101 23.8629 15.5227C24.6493 15.5547 25.4338 15.4263 26.1688 15.1456C26.9038 14.8648 27.5737 14.4375 28.1377 13.8897C28.5855 13.4593 28.9731 12.9706 29.29 12.4368C29.8033 11.5809 30.1572 10.6393 30.3347 9.65759C30.5476 9.83098 30.7765 9.98374 31.0184 10.1138C32.9388 11.145 35.8731 9.78026 36.5184 8.74524C36.7046 8.48016 36.8352 8.18027 36.9025 7.86355C36.9181 7.78962 36.9098 7.71266 36.8787 7.64376C36.8476 7.57486 36.7954 7.51759 36.7296 7.48021C36.6813 7.45376 36.6278 7.43802 36.5728 7.43405C36.5177 7.43008 36.4625 7.43798 36.4108 7.45721C34.8705 8.01137 33.1735 7.93839 31.6867 7.25404C30.9579 6.93454 30.3452 6.39926 29.9314 5.72067C29.5473 5.20316 29.3246 4.57065 28.9366 4.07614C28.2058 3.09364 27.2651 2.28572 26.1828 1.71092C24.8841 1.01481 23.4321 0.652513 21.9579 0.656732C20.6136 0.642561 19.2844 0.941068 18.0758 1.5286C16.8671 2.11613 15.8122 2.97653 14.9945 4.04164" fill="white"/>
<path d="M71.931 26.3945C71.6353 24.6196 71.4547 23.4964 71.3088 22.5112C69.8045 22.1096 68.2568 21.892 66.6998 21.8634C61.9718 21.8634 59.1526 24.1634 59.1526 26.8737C59.1526 30.0516 62.8513 31.4316 65.1981 32.4168C67.9481 33.5438 69.9607 34.529 69.9607 36.6105C69.9607 38.6921 68.3514 39.9878 65.563 39.9878C61.7529 39.9878 60.1052 37.1434 59.5559 35.426L58.4536 35.6254C58.711 36.9747 59.1872 39.3974 59.4445 39.9878C60.0402 40.2283 60.6525 40.4256 61.2766 40.5781C62.454 40.8526 63.6586 40.994 64.8678 40.9998C69.7417 40.9998 73.0026 38.6346 73.0026 35.6828C73.0026 32.5011 69.5459 31.2054 66.6653 30.0515C63.7847 28.8977 62.0102 27.9432 62.0102 25.8885C62.0102 24.3551 63.2546 22.8217 66.0776 22.8217C69.2655 22.8217 70.2564 24.7653 70.8786 26.5363L71.9425 26.3983L71.931 26.3945Z" fill="white"/>
<path d="M47.795 22.7298V21.9094H40.8547V22.7298C42.9134 22.8141 43.5894 23.1974 43.7353 24.5468C43.9137 26.1619 43.983 27.7871 43.9427 29.4114V36.6221H43.8544L31.5638 21.9094H27.6923V22.7834C28.7447 22.9176 29.3169 23.1668 29.8585 23.8108C30.4 24.4548 30.45 24.6311 30.45 26.774V33.2218C30.45 35.9052 30.3616 37.3236 30.2695 38.2321C30.1235 39.6696 29.3592 40.0492 27.6846 40.1488V40.9692H34.6518V40.1488C32.6546 40.0338 31.9632 39.6811 31.8288 38.1861C31.6865 36.5392 31.6276 34.8862 31.6522 33.2333V25.8655H31.7136L44.0311 40.9768H45.1411V29.4114C45.1006 27.7584 45.1596 26.1046 45.3177 24.4586C45.4329 23.1975 46.1397 22.8141 47.7874 22.7298H47.795Z" fill="white"/>
<path d="M58.0002 40.9577V40.1373C55.1273 39.961 54.8469 39.8153 54.8469 37.2929V25.5703C54.8469 23.0786 55.1273 22.8869 58.0002 22.7298V21.9094L48.7132 21.9094V22.7298C51.5861 22.9061 51.8703 23.0786 51.8703 25.5703V37.2929C51.8703 39.7846 51.5861 39.9763 48.7132 40.1373V40.9577H58.0002Z" fill="white"/>
</svg>
