<svg xmlns="http://www.w3.org/2000/svg" viewBox="0 0 112.04 112.04"><defs><style>.cls-1{fill:#00aa2f;}.cls-2{fill:#fff;}</style></defs><g id="Слой_2" data-name="Слой 2"><g id="_1" data-name="1"><path class="cls-1" d="M112,56A56,56,0,1,1,56,0,56,56,0,0,1,112,56Z"/><path class="cls-2" d="M58,25.7C74.58,28.2,82.2,35.9,84.31,52.23l0,.37c.09,1.48-.24,3.41,1.78,3.45,1.75,0,1.84-1.26,1.8-2.55,0-.4,0-.79,0-1.15C88.08,37,74.4,22.72,58.52,22.19c-1.2.17-3.68-.81-3.83,1.82C54.59,25.79,56.67,25.5,58,25.7Z"/><path class="cls-2" d="M61.28,30.18c-1.59-.19-3.69-.93-4.06,1.24s1.94,2,3.45,2.37C70.88,36,74.44,39.67,76.12,49.6c.07.42.08.91.12,1.38.09,1.16.36,2.21,2.15,2a1.38,1.38,0,0,0,1.3-1.33c.09-.66,0-1.44,0-2C79.81,40.06,71.48,31.38,61.28,30.18Z"/><path class="cls-2" d="M62.22,38c-1.06,0-2.11.14-2.5,1.26-.58,1.65.65,2.06,1.9,2.25,4.19.66,6.4,3.08,6.81,7.17A2.49,2.49,0,0,0,69,50a1.53,1.53,0,0,0,1.38.54,1.85,1.85,0,0,0,.83-.29A2.71,2.71,0,0,0,72,47.78C72.05,43.18,66.74,37.86,62.22,38Z"/><path class="cls-2" d="M83.4,70.16c-2.06-1.63-4.27-3.09-6.44-4.58-4.33-3-8.29-3.22-11.52,1.58-1.82,2.69-4.36,2.81-7,1.63-7.32-3.25-13-8.27-16.29-15.57a9.32,9.32,0,0,1-.91-3.29c-.11-1.91.68-3.64,2.89-5.11,1.82-1.21,3.65-2.64,3.5-5.28C47.43,36.1,38.91,24.6,35.55,23.4a6.24,6.24,0,0,0-4.2,0c-7.89,2.6-11.16,9-8,16.49a91.53,91.53,0,0,0,5.94,11.84C39,68,53.3,79.77,71.7,87.54a23.71,23.71,0,0,0,3.45,1c5.14,0,11.18-4.82,12.92-9.64C89.75,74.22,86.2,72.38,83.4,70.16Z"/></g></g></svg>