<svg width="86" height="86" viewBox="0 0 86 86" fill="none" xmlns="http://www.w3.org/2000/svg">
<g clip-path="url(#clip0_51_4844)">
<path d="M32.358 4.35767L29.3164 4.35767V7.41573H32.358V4.35767Z" fill="#55BBEB"/>
<path d="M38.4401 4.35767L35.3984 4.35767V7.41573H38.4401V4.35767Z" fill="#55BBEB"/>
<path d="M50.6046 4.35767L47.563 4.35767V7.41573H50.6046V4.35767Z" fill="#55BBEB"/>
<path d="M53.6451 4.35767L50.6035 4.35767V7.41573H53.6451V4.35767Z" fill="#55BBEB"/>
<path d="M56.6866 4.35767L53.645 4.35767V7.41573H56.6866V4.35767Z" fill="#55BBEB"/>
<path d="M47.5631 7.41449L44.5215 7.41449V10.4726H47.5631V7.41449Z" fill="#55BBEB"/>
<path d="M50.6046 7.41449L47.563 7.41449V10.4726H50.6046V7.41449Z" fill="#55BBEB"/>
<path d="M56.6866 7.41449L53.645 7.41449V10.4726H56.6866V7.41449Z" fill="#55BBEB"/>
<path d="M32.358 10.4725H29.3164V13.5306H32.358V10.4725Z" fill="#55BBEB"/>
<path d="M41.4816 10.4725H38.4399V13.5306H41.4816V10.4725Z" fill="#55BBEB"/>
<path d="M44.5216 10.4725H41.48V13.5306H44.5216V10.4725Z" fill="#55BBEB"/>
<path d="M50.6046 10.4725H47.563V13.5306H50.6046V10.4725Z" fill="#55BBEB"/>
<path d="M35.3995 13.5306H32.3579V16.5886H35.3995V13.5306Z" fill="#55BBEB"/>
<path d="M38.4401 13.5306H35.3984V16.5886H38.4401V13.5306Z" fill="#55BBEB"/>
<path d="M44.5216 13.5306H41.48V16.5886H44.5216V13.5306Z" fill="#55BBEB"/>
<path d="M50.6046 13.5306H47.563V16.5886H50.6046V13.5306Z" fill="#55BBEB"/>
<path d="M53.6451 13.5306H50.6035V16.5886H53.6451V13.5306Z" fill="#55BBEB"/>
<path d="M35.3995 16.5872H32.3579V19.6453H35.3995V16.5872Z" fill="#55BBEB"/>
<path d="M44.5216 16.5872H41.48V19.6453H44.5216V16.5872Z" fill="#55BBEB"/>
<path d="M47.5631 16.5872H44.5215V19.6453H47.5631V16.5872Z" fill="#55BBEB"/>
<path d="M50.6046 16.5872H47.563V19.6453H50.6046V16.5872Z" fill="#55BBEB"/>
<path d="M56.6866 16.5872H53.645V19.6453H56.6866V16.5872Z" fill="#55BBEB"/>
<path d="M32.358 19.6453H29.3164V22.7034H32.358V19.6453Z" fill="#55BBEB"/>
<path d="M35.3995 19.6453H32.3579V22.7034H35.3995V19.6453Z" fill="#55BBEB"/>
<path d="M44.5216 19.6453H41.48V22.7034H44.5216V19.6453Z" fill="#55BBEB"/>
<path d="M56.6866 19.6453H53.645V22.7034H56.6866V19.6453Z" fill="#55BBEB"/>
<path d="M32.358 22.7034H29.3164V25.7614H32.358V22.7034Z" fill="#55BBEB"/>
<path d="M38.4401 22.7034H35.3984V25.7614H38.4401V22.7034Z" fill="#55BBEB"/>
<path d="M44.5216 22.7034H41.48V25.7614H44.5216V22.7034Z" fill="#55BBEB"/>
<path d="M50.6046 22.7034H47.563V25.7614H50.6046V22.7034Z" fill="#55BBEB"/>
<path d="M56.6866 22.7034H53.645V25.7614H56.6866V22.7034Z" fill="#55BBEB"/>
<path d="M35.3995 25.7601H32.3579V28.8182H35.3995V25.7601Z" fill="#55BBEB"/>
<path d="M50.6046 25.7601H47.563V28.8182H50.6046V25.7601Z" fill="#55BBEB"/>
<path d="M8.02892 28.8182H4.9873L4.9873 31.8762H8.02892V28.8182Z" fill="#55BBEB"/>
<path d="M14.111 28.8182H11.0693V31.8762H14.111V28.8182Z" fill="#55BBEB"/>
<path d="M26.276 28.8182H23.2344V31.8762H26.276V28.8182Z" fill="#55BBEB"/>
<path d="M29.316 28.8182H26.2744V31.8762H29.316V28.8182Z" fill="#55BBEB"/>
<path d="M35.3995 28.8182H32.3579V31.8762H35.3995V28.8182Z" fill="#55BBEB"/>
<path d="M38.4401 28.8182H35.3984V31.8762H38.4401V28.8182Z" fill="#55BBEB"/>
<path d="M41.4816 28.8182H38.4399V31.8762H41.4816V28.8182Z" fill="#55BBEB"/>
<path d="M47.5631 28.8182H44.5215V31.8762H47.5631V28.8182Z" fill="#55BBEB"/>
<path d="M50.6046 28.8182H47.563V31.8762H50.6046V28.8182Z" fill="#55BBEB"/>
<path d="M56.6866 28.8182H53.645V31.8762H56.6866V28.8182Z" fill="#55BBEB"/>
<path d="M65.8102 28.8182H62.7686V31.8762H65.8102V28.8182Z" fill="#55BBEB"/>
<path d="M74.9337 28.8182H71.8921V31.8762H74.9337V28.8182Z" fill="#55BBEB"/>
<path d="M81.0157 28.8182H77.9741V31.8762H81.0157V28.8182Z" fill="#55BBEB"/>
<path d="M8.02892 31.8749H4.9873L4.9873 34.9329H8.02892V31.8749Z" fill="#55BBEB"/>
<path d="M17.1525 31.8749H14.1108V34.9329H17.1525V31.8749Z" fill="#55BBEB"/>
<path d="M20.1945 31.8749H17.1528V34.9329H20.1945V31.8749Z" fill="#55BBEB"/>
<path d="M29.316 31.8749H26.2744V34.9329H29.316V31.8749Z" fill="#55BBEB"/>
<path d="M32.358 31.8749H29.3164V34.9329H32.358V31.8749Z" fill="#55BBEB"/>
<path d="M38.4401 31.8749H35.3984V34.9329H38.4401V31.8749Z" fill="#55BBEB"/>
<path d="M44.5216 31.8749H41.48V34.9329H44.5216V31.8749Z" fill="#55BBEB"/>
<path d="M47.5631 31.8749H44.5215V34.9329H47.5631V31.8749Z" fill="#55BBEB"/>
<path d="M50.6046 31.8749H47.563V34.9329H50.6046V31.8749Z" fill="#55BBEB"/>
<path d="M53.6451 31.8749H50.6035V34.9329H53.6451V31.8749Z" fill="#55BBEB"/>
<path d="M56.6866 31.8749H53.645V34.9329H56.6866V31.8749Z" fill="#55BBEB"/>
<path d="M62.7692 31.8749H59.7275V34.9329H62.7692V31.8749Z" fill="#55BBEB"/>
<path d="M65.8102 31.8749H62.7686V34.9329H65.8102V31.8749Z" fill="#55BBEB"/>
<path d="M71.8927 31.8749H68.8511V34.9329H71.8927V31.8749Z" fill="#55BBEB"/>
<path d="M77.9742 31.8749H74.9326V34.9329H77.9742V31.8749Z" fill="#55BBEB"/>
<path d="M81.0157 31.8749H77.9741V34.9329H81.0157V31.8749Z" fill="#55BBEB"/>
<path d="M8.02892 34.933H4.9873L4.9873 37.991H8.02892V34.933Z" fill="#55BBEB"/>
<path d="M11.0704 34.933H8.02881V37.991H11.0704V34.933Z" fill="#55BBEB"/>
<path d="M17.1525 34.933H14.1108V37.991H17.1525V34.933Z" fill="#55BBEB"/>
<path d="M20.1945 34.933H17.1528V37.991H20.1945V34.933Z" fill="#55BBEB"/>
<path d="M26.276 34.933H23.2344V37.991H26.276V34.933Z" fill="#55BBEB"/>
<path d="M35.3995 34.933H32.3579V37.991H35.3995V34.933Z" fill="#55BBEB"/>
<path d="M41.4816 34.933H38.4399V37.991H41.4816V34.933Z" fill="#55BBEB"/>
<path d="M44.5216 34.933H41.48V37.991H44.5216V34.933Z" fill="#55BBEB"/>
<path d="M53.6451 34.933H50.6035V37.991H53.6451V34.933Z" fill="#55BBEB"/>
<path d="M62.7692 34.933H59.7275V37.991H62.7692V34.933Z" fill="#55BBEB"/>
<path d="M65.8102 34.933H62.7686V37.991H65.8102V34.933Z" fill="#55BBEB"/>
<path d="M71.8927 34.933H68.8511V37.991H71.8927V34.933Z" fill="#55BBEB"/>
<path d="M74.9337 34.933H71.8921V37.991H74.9337V34.933Z" fill="#55BBEB"/>
<path d="M81.0157 34.933H77.9741V37.991H81.0157V34.933Z" fill="#55BBEB"/>
<path d="M8.02892 37.991H4.9873L4.9873 41.0491H8.02892V37.991Z" fill="#55BBEB"/>
<path d="M17.1525 37.991H14.1108V41.0491H17.1525V37.991Z" fill="#55BBEB"/>
<path d="M20.1945 37.991H17.1528V41.0491H20.1945V37.991Z" fill="#55BBEB"/>
<path d="M23.234 37.991H20.1924V41.0491H23.234V37.991Z" fill="#55BBEB"/>
<path d="M32.358 37.991H29.3164V41.0491H32.358V37.991Z" fill="#55BBEB"/>
<path d="M35.3995 37.991H32.3579V41.0491H35.3995V37.991Z" fill="#55BBEB"/>
<path d="M44.5216 37.991H41.48V41.0491H44.5216V37.991Z" fill="#55BBEB"/>
<path d="M47.5631 37.991H44.5215V41.0491H47.5631V37.991Z" fill="#55BBEB"/>
<path d="M59.7286 37.991H56.687V41.0491H59.7286V37.991Z" fill="#55BBEB"/>
<path d="M71.8927 37.991H68.8511V41.0491H71.8927V37.991Z" fill="#55BBEB"/>
<path d="M8.02892 41.0477H4.9873L4.9873 44.1058H8.02892V41.0477Z" fill="#55BBEB"/>
<path d="M14.111 41.0477H11.0693V44.1058H14.111V41.0477Z" fill="#55BBEB"/>
<path d="M23.234 41.0477H20.1924V44.1058H23.234V41.0477Z" fill="#55BBEB"/>
<path d="M26.276 41.0477H23.2344V44.1058H26.276V41.0477Z" fill="#55BBEB"/>
<path d="M32.358 41.0477H29.3164V44.1058H32.358V41.0477Z" fill="#55BBEB"/>
<path d="M35.3995 41.0477H32.3579V44.1058H35.3995V41.0477Z" fill="#55BBEB"/>
<path d="M38.4401 41.0477H35.3984V44.1058H38.4401V41.0477Z" fill="#55BBEB"/>
<path d="M41.4816 41.0477H38.4399V44.1058H41.4816V41.0477Z" fill="#55BBEB"/>
<path d="M44.5216 41.0477H41.48V44.1058H44.5216V41.0477Z" fill="#55BBEB"/>
<path d="M47.5631 41.0477H44.5215V44.1058H47.5631V41.0477Z" fill="#55BBEB"/>
<path d="M53.6451 41.0477H50.6035V44.1058H53.6451V41.0477Z" fill="#55BBEB"/>
<path d="M56.6866 41.0477H53.645V44.1058H56.6866V41.0477Z" fill="#55BBEB"/>
<path d="M62.7692 41.0477H59.7275V44.1058H62.7692V41.0477Z" fill="#55BBEB"/>
<path d="M65.8102 41.0477H62.7686V44.1058H65.8102V41.0477Z" fill="#55BBEB"/>
<path d="M81.0157 41.0477H77.9741V44.1058H81.0157V41.0477Z" fill="#55BBEB"/>
<path d="M11.0704 44.1058H8.02881V47.1638H11.0704V44.1058Z" fill="#55BBEB"/>
<path d="M14.111 44.1058H11.0693V47.1638H14.111V44.1058Z" fill="#55BBEB"/>
<path d="M17.1525 44.1058H14.1108V47.1638H17.1525V44.1058Z" fill="#55BBEB"/>
<path d="M29.316 44.1058H26.2744V47.1638H29.316V44.1058Z" fill="#55BBEB"/>
<path d="M32.358 44.1058H29.3164V47.1638H32.358V44.1058Z" fill="#55BBEB"/>
<path d="M35.3995 44.1058H32.3579V47.1638H35.3995V44.1058Z" fill="#55BBEB"/>
<path d="M44.5216 44.1058H41.48V47.1638H44.5216V44.1058Z" fill="#55BBEB"/>
<path d="M53.6451 44.1058H50.6035V47.1638H53.6451V44.1058Z" fill="#55BBEB"/>
<path d="M56.6866 44.1058H53.645V47.1638H56.6866V44.1058Z" fill="#55BBEB"/>
<path d="M59.7286 44.1058H56.687V47.1638H59.7286V44.1058Z" fill="#55BBEB"/>
<path d="M62.7692 44.1058H59.7275V47.1638H62.7692V44.1058Z" fill="#55BBEB"/>
<path d="M65.8102 44.1058H62.7686V47.1638H65.8102V44.1058Z" fill="#55BBEB"/>
<path d="M77.9742 44.1058H74.9326V47.1638H77.9742V44.1058Z" fill="#55BBEB"/>
<path d="M81.0157 44.1058H77.9741V47.1638H81.0157V44.1058Z" fill="#55BBEB"/>
<path d="M8.02892 47.1625H4.9873L4.9873 50.2206H8.02892V47.1625Z" fill="#55BBEB"/>
<path d="M11.0704 47.1625H8.02881V50.2206H11.0704V47.1625Z" fill="#55BBEB"/>
<path d="M14.111 47.1625H11.0693V50.2206H14.111V47.1625Z" fill="#55BBEB"/>
<path d="M17.1525 47.1625H14.1108V50.2206H17.1525V47.1625Z" fill="#55BBEB"/>
<path d="M20.1945 47.1625H17.1528V50.2206H20.1945V47.1625Z" fill="#55BBEB"/>
<path d="M23.234 47.1625H20.1924V50.2206H23.234V47.1625Z" fill="#55BBEB"/>
<path d="M26.276 47.1625H23.2344V50.2206H26.276V47.1625Z" fill="#55BBEB"/>
<path d="M29.316 47.1625H26.2744V50.2206H29.316V47.1625Z" fill="#55BBEB"/>
<path d="M32.358 47.1625H29.3164V50.2206H32.358V47.1625Z" fill="#55BBEB"/>
<path d="M38.4401 47.1625H35.3984V50.2206H38.4401V47.1625Z" fill="#55BBEB"/>
<path d="M44.5216 47.1625H41.48V50.2206H44.5216V47.1625Z" fill="#55BBEB"/>
<path d="M47.5631 47.1625H44.5215V50.2206H47.5631V47.1625Z" fill="#55BBEB"/>
<path d="M50.6046 47.1625H47.563V50.2206H50.6046V47.1625Z" fill="#55BBEB"/>
<path d="M53.6451 47.1625H50.6035V50.2206H53.6451V47.1625Z" fill="#55BBEB"/>
<path d="M56.6866 47.1625H53.645V50.2206H56.6866V47.1625Z" fill="#55BBEB"/>
<path d="M59.7286 47.1625H56.687V50.2206H59.7286V47.1625Z" fill="#55BBEB"/>
<path d="M71.8927 47.1625H68.8511V50.2206H71.8927V47.1625Z" fill="#55BBEB"/>
<path d="M74.9337 47.1625H71.8921V50.2206H74.9337V47.1625Z" fill="#55BBEB"/>
<path d="M81.0157 47.1625H77.9741V50.2206H81.0157V47.1625Z" fill="#55BBEB"/>
<path d="M17.1525 50.2206H14.1108V53.2786H17.1525V50.2206Z" fill="#55BBEB"/>
<path d="M20.1945 50.2206H17.1528V53.2786H20.1945V50.2206Z" fill="#55BBEB"/>
<path d="M23.234 50.2206H20.1924V53.2786H23.234V50.2206Z" fill="#55BBEB"/>
<path d="M29.316 50.2206H26.2744V53.2786H29.316V50.2206Z" fill="#55BBEB"/>
<path d="M32.358 50.2206H29.3164V53.2786H32.358V50.2206Z" fill="#55BBEB"/>
<path d="M38.4401 50.2206H35.3984V53.2786H38.4401V50.2206Z" fill="#55BBEB"/>
<path d="M41.4816 50.2206H38.4399V53.2786H41.4816V50.2206Z" fill="#55BBEB"/>
<path d="M44.5216 50.2206H41.48V53.2786H44.5216V50.2206Z" fill="#55BBEB"/>
<path d="M50.6046 50.2206H47.563V53.2786H50.6046V50.2206Z" fill="#55BBEB"/>
<path d="M53.6451 50.2206H50.6035V53.2786H53.6451V50.2206Z" fill="#55BBEB"/>
<path d="M56.6866 50.2206H53.645V53.2786H56.6866V50.2206Z" fill="#55BBEB"/>
<path d="M59.7286 50.2206H56.687V53.2786H59.7286V50.2206Z" fill="#55BBEB"/>
<path d="M65.8102 50.2206H62.7686V53.2786H65.8102V50.2206Z" fill="#55BBEB"/>
<path d="M68.8507 50.2206H65.8091V53.2786H68.8507V50.2206Z" fill="#55BBEB"/>
<path d="M71.8927 50.2206H68.8511V53.2786H71.8927V50.2206Z" fill="#55BBEB"/>
<path d="M8.02892 53.2787H4.9873L4.9873 56.3368H8.02892V53.2787Z" fill="#55BBEB"/>
<path d="M11.0704 53.2787H8.02881V56.3368H11.0704V53.2787Z" fill="#55BBEB"/>
<path d="M14.111 53.2787H11.0693V56.3368H14.111V53.2787Z" fill="#55BBEB"/>
<path d="M17.1525 53.2787H14.1108V56.3368H17.1525V53.2787Z" fill="#55BBEB"/>
<path d="M20.1945 53.2787H17.1528V56.3368H20.1945V53.2787Z" fill="#55BBEB"/>
<path d="M26.276 53.2787H23.2344V56.3368H26.276V53.2787Z" fill="#55BBEB"/>
<path d="M29.316 53.2787H26.2744V56.3368H29.316V53.2787Z" fill="#55BBEB"/>
<path d="M32.358 53.2787H29.3164V56.3368H32.358V53.2787Z" fill="#55BBEB"/>
<path d="M35.3995 53.2787H32.3579V56.3368H35.3995V53.2787Z" fill="#55BBEB"/>
<path d="M47.5631 53.2787H44.5215V56.3368H47.5631V53.2787Z" fill="#55BBEB"/>
<path d="M50.6046 53.2787H47.563V56.3368H50.6046V53.2787Z" fill="#55BBEB"/>
<path d="M56.6866 53.2787H53.645V56.3368H56.6866V53.2787Z" fill="#55BBEB"/>
<path d="M59.7286 53.2787H56.687V56.3368H59.7286V53.2787Z" fill="#55BBEB"/>
<path d="M62.7692 53.2787H59.7275V56.3368H62.7692V53.2787Z" fill="#55BBEB"/>
<path d="M65.8102 53.2787H62.7686V56.3368H65.8102V53.2787Z" fill="#55BBEB"/>
<path d="M68.8507 53.2787H65.8091V56.3368H68.8507V53.2787Z" fill="#55BBEB"/>
<path d="M77.9742 53.2787H74.9326V56.3368H77.9742V53.2787Z" fill="#55BBEB"/>
<path d="M32.358 56.3354H29.3164V59.3935H32.358V56.3354Z" fill="#55BBEB"/>
<path d="M35.3995 56.3354H32.3579V59.3935H35.3995V56.3354Z" fill="#55BBEB"/>
<path d="M38.4401 56.3354H35.3984V59.3935H38.4401V56.3354Z" fill="#55BBEB"/>
<path d="M47.5631 56.3354H44.5215V59.3935H47.5631V56.3354Z" fill="#55BBEB"/>
<path d="M50.6046 56.3354H47.563V59.3935H50.6046V56.3354Z" fill="#55BBEB"/>
<path d="M56.6866 56.3354H53.645V59.3935H56.6866V56.3354Z" fill="#55BBEB"/>
<path d="M68.8507 56.3354H65.8091V59.3935H68.8507V56.3354Z" fill="#55BBEB"/>
<path d="M81.0157 56.3354H77.9741V59.3935H81.0157V56.3354Z" fill="#55BBEB"/>
<path d="M32.358 59.3934H29.3164V62.4515H32.358V59.3934Z" fill="#55BBEB"/>
<path d="M35.3995 59.3934H32.3579V62.4515H35.3995V59.3934Z" fill="#55BBEB"/>
<path d="M41.4816 59.3934H38.4399V62.4515H41.4816V59.3934Z" fill="#55BBEB"/>
<path d="M56.6866 59.3934H53.645V62.4515H56.6866V59.3934Z" fill="#55BBEB"/>
<path d="M62.7692 59.3934H59.7275V62.4515H62.7692V59.3934Z" fill="#55BBEB"/>
<path d="M68.8507 59.3934H65.8091V62.4515H68.8507V59.3934Z" fill="#55BBEB"/>
<path d="M81.0157 59.3934H77.9741V62.4515H81.0157V59.3934Z" fill="#55BBEB"/>
<path d="M38.4401 62.4501H35.3984V65.5082H38.4401V62.4501Z" fill="#55BBEB"/>
<path d="M47.5631 62.4501H44.5215V65.5082H47.5631V62.4501Z" fill="#55BBEB"/>
<path d="M56.6866 62.4501H53.645V65.5082H56.6866V62.4501Z" fill="#55BBEB"/>
<path d="M68.8507 62.4501H65.8091V65.5082H68.8507V62.4501Z" fill="#55BBEB"/>
<path d="M77.9742 62.4501H74.9326V65.5082H77.9742V62.4501Z" fill="#55BBEB"/>
<path d="M35.3995 65.5082H32.3579V68.5662H35.3995V65.5082Z" fill="#55BBEB"/>
<path d="M38.4401 65.5082H35.3984V68.5662H38.4401V65.5082Z" fill="#55BBEB"/>
<path d="M41.4816 65.5082H38.4399V68.5662H41.4816V65.5082Z" fill="#55BBEB"/>
<path d="M44.5216 65.5082H41.48V68.5662H44.5216V65.5082Z" fill="#55BBEB"/>
<path d="M47.5631 65.5082H44.5215V68.5662H47.5631V65.5082Z" fill="#55BBEB"/>
<path d="M53.6451 65.5082H50.6035V68.5662H53.6451V65.5082Z" fill="#55BBEB"/>
<path d="M56.6866 65.5082H53.645V68.5662H56.6866V65.5082Z" fill="#55BBEB"/>
<path d="M59.7286 65.5082H56.687V68.5662H59.7286V65.5082Z" fill="#55BBEB"/>
<path d="M62.7692 65.5082H59.7275V68.5662H62.7692V65.5082Z" fill="#55BBEB"/>
<path d="M65.8102 65.5082H62.7686V68.5662H65.8102V65.5082Z" fill="#55BBEB"/>
<path d="M68.8507 65.5082H65.8091V68.5662H68.8507V65.5082Z" fill="#55BBEB"/>
<path d="M77.9742 65.5082H74.9326V68.5662H77.9742V65.5082Z" fill="#55BBEB"/>
<path d="M81.0157 65.5082H77.9741V68.5662H81.0157V65.5082Z" fill="#55BBEB"/>
<path d="M35.3995 68.5663H32.3579V71.6243H35.3995V68.5663Z" fill="#55BBEB"/>
<path d="M44.5216 68.5663H41.48V71.6243H44.5216V68.5663Z" fill="#55BBEB"/>
<path d="M53.6451 68.5663H50.6035V71.6243H53.6451V68.5663Z" fill="#55BBEB"/>
<path d="M59.7286 68.5663H56.687V71.6243H59.7286V68.5663Z" fill="#55BBEB"/>
<path d="M68.8507 68.5663H65.8091V71.6243H68.8507V68.5663Z" fill="#55BBEB"/>
<path d="M74.9337 68.5663H71.8921V71.6243H74.9337V68.5663Z" fill="#55BBEB"/>
<path d="M77.9742 68.5663H74.9326V71.6243H77.9742V68.5663Z" fill="#55BBEB"/>
<path d="M32.358 71.623H29.3164V74.6811H32.358V71.623Z" fill="#55BBEB"/>
<path d="M38.4401 71.623H35.3984V74.6811H38.4401V71.623Z" fill="#55BBEB"/>
<path d="M44.5216 71.623H41.48V74.6811H44.5216V71.623Z" fill="#55BBEB"/>
<path d="M47.5631 71.623H44.5215V74.6811H47.5631V71.623Z" fill="#55BBEB"/>
<path d="M50.6046 71.623H47.563V74.6811H50.6046V71.623Z" fill="#55BBEB"/>
<path d="M59.7286 71.623H56.687V74.6811H59.7286V71.623Z" fill="#55BBEB"/>
<path d="M65.8102 71.623H62.7686V74.6811H65.8102V71.623Z" fill="#55BBEB"/>
<path d="M68.8507 71.623H65.8091V74.6811H68.8507V71.623Z" fill="#55BBEB"/>
<path d="M71.8927 71.623H68.8511V74.6811H71.8927V71.623Z" fill="#55BBEB"/>
<path d="M77.9742 71.623H74.9326V74.6811H77.9742V71.623Z" fill="#55BBEB"/>
<path d="M81.0157 71.623H77.9741V74.6811H81.0157V71.623Z" fill="#55BBEB"/>
<path d="M35.3995 74.6811H32.3579V77.7392H35.3995V74.6811Z" fill="#55BBEB"/>
<path d="M41.4816 74.6811H38.4399V77.7392H41.4816V74.6811Z" fill="#55BBEB"/>
<path d="M44.5216 74.6811H41.48V77.7392H44.5216V74.6811Z" fill="#55BBEB"/>
<path d="M50.6046 74.6811H47.563V77.7392H50.6046V74.6811Z" fill="#55BBEB"/>
<path d="M56.6866 74.6811H53.645V77.7392H56.6866V74.6811Z" fill="#55BBEB"/>
<path d="M62.7692 74.6811H59.7275V77.7392H62.7692V74.6811Z" fill="#55BBEB"/>
<path d="M65.8102 74.6811H62.7686V77.7392H65.8102V74.6811Z" fill="#55BBEB"/>
<path d="M68.8507 74.6811H65.8091V77.7392H68.8507V74.6811Z" fill="#55BBEB"/>
<path d="M32.358 77.7391H29.3164V80.7971H32.358V77.7391Z" fill="#55BBEB"/>
<path d="M35.3995 77.7391H32.3579V80.7971H35.3995V77.7391Z" fill="#55BBEB"/>
<path d="M47.5631 77.7391H44.5215V80.7971H47.5631V77.7391Z" fill="#55BBEB"/>
<path d="M50.6046 77.7391H47.563V80.7971H50.6046V77.7391Z" fill="#55BBEB"/>
<path d="M56.6866 77.7391H53.645V80.7971H56.6866V77.7391Z" fill="#55BBEB"/>
<path d="M62.7692 77.7391H59.7275V80.7971H62.7692V77.7391Z" fill="#55BBEB"/>
<path d="M71.8927 77.7391H68.8511V80.7971H71.8927V77.7391Z" fill="#55BBEB"/>
<path d="M81.0157 77.7391H77.9741V80.7971H81.0157V77.7391Z" fill="#55BBEB"/>
<path d="M20.1929 10.4725L11.0693 10.4725L11.0693 19.6454H20.1929V10.4725Z" fill="#55BBEB"/>
<path d="M4.9873 4.35767L4.9873 25.7601L26.2746 25.7601L26.2746 4.35767L4.9873 4.35767ZM23.0813 22.5495L8.1806 22.5495L8.1806 7.56823L23.0813 7.56823L23.0813 22.5495Z" fill="#55BBEB"/>
<path d="M74.9326 10.4725L65.8091 10.4725V19.6454H74.9326V10.4725Z" fill="#55BBEB"/>
<path d="M59.7275 4.35767V25.7601L81.0148 25.7601V4.35767L59.7275 4.35767ZM77.8215 22.5495L62.9208 22.5495V7.56823L77.8215 7.56823V22.5495Z" fill="#55BBEB"/>
<path d="M20.1929 65.5082H11.0693L11.0693 74.6811H20.1929V65.5082Z" fill="#55BBEB"/>
<path d="M4.9873 59.3934L4.9873 80.7958H26.2746L26.2746 59.3934H4.9873ZM23.0813 77.5853H8.1806L8.1806 62.604H23.0813L23.0813 77.5853Z" fill="#55BBEB"/>
<path d="M20.1929 10.4725L11.0693 10.4725L11.0693 19.6454H20.1929V10.4725Z" fill="#55BBEB"/>
<path d="M74.9326 10.4725L65.8091 10.4725V19.6454H74.9326V10.4725Z" fill="#55BBEB"/>
<path d="M20.1929 65.5082H11.0693L11.0693 74.681H20.1929V65.5082Z" fill="#55BBEB"/>
<path d="M4.96679 0.539856L1.58691 0.539856L1.58691 3.86918" stroke="#55BBEB" stroke-width="1.6747" stroke-miterlimit="10"/>
<path d="M84.6247 3.75311V0.577637L81.332 0.577637" stroke="#55BBEB" stroke-width="1.6747" stroke-miterlimit="10"/>
<path d="M81.1401 84.7162H84.52V81.3869" stroke="#55BBEB" stroke-width="1.6747" stroke-miterlimit="10"/>
<path d="M1.48242 81.5016L1.48242 84.6784H4.77505" stroke="#55BBEB" stroke-width="1.6747" stroke-miterlimit="10"/>
</g>
<defs>
<clipPath id="clip0_51_4844">
<rect width="84.2163" height="85.256" fill="white" transform="translate(0.945312)"/>
</clipPath>
</defs>
</svg>
