<svg width="156" height="33" viewBox="0 0 156 33" fill="none" xmlns="http://www.w3.org/2000/svg">
<path d="M124.373 23.972C124.373 23.1751 124.631 22.529 125.148 22.0336C125.665 21.5167 126.322 21.2583 127.119 21.2583C127.894 21.2583 128.54 21.5167 129.057 22.0336C129.595 22.5505 129.865 23.1966 129.865 23.972C129.865 24.7473 129.595 25.3934 129.057 25.9103C128.54 26.4056 127.894 26.6533 127.119 26.6533C126.322 26.6533 125.665 26.4056 125.148 25.9103C124.631 25.3934 124.373 24.7473 124.373 23.972Z" fill="#232F37"/>
<path d="M115.795 9.6604C117.582 9.6604 119.036 10.2527 120.156 11.4372C121.276 12.6217 121.836 14.5924 121.836 17.3491V26.4916H117.281V17.1876C117.281 14.6677 116.322 13.4078 114.405 13.4078C113.415 13.4078 112.618 13.7632 112.015 14.4739C111.412 15.1631 111.11 16.1323 111.11 17.3814V26.4916H106.555V17.1876C106.555 14.6677 105.586 13.4078 103.648 13.4078C102.657 13.4078 101.86 13.774 101.257 14.5062C100.675 15.2169 100.385 16.1861 100.385 17.4137V26.4916H95.8296V9.85423H99.8032L100.223 11.9218C100.783 11.2111 101.451 10.6619 102.226 10.2742C103.001 9.88654 103.971 9.68194 105.134 9.6604C107.503 9.6604 109.15 10.5973 110.076 12.471C110.679 11.5664 111.466 10.8772 112.435 10.4034C113.425 9.90808 114.545 9.6604 115.795 9.6604Z" fill="#232F37"/>
<path d="M90.3937 2.94092C91.1475 2.94092 91.7721 3.18859 92.2674 3.68394C92.7628 4.15776 93.0105 4.76079 93.0105 5.49305C93.0105 6.22531 92.7628 6.83911 92.2674 7.33446C91.7721 7.82981 91.1475 8.07749 90.3937 8.07749C89.6399 8.07749 89.0046 7.82981 88.4877 7.33446C87.9923 6.83911 87.7446 6.22531 87.7446 5.49305C87.7446 4.76079 87.9923 4.15776 88.4877 3.68394C89.0046 3.18859 89.6399 2.94092 90.3937 2.94092ZM88.1 9.85429H92.6551V26.4593H88.1V9.85429Z" fill="#232F37"/>
<path d="M73.694 9.854L77.7322 21.7747L81.6735 9.854H86.5517L79.186 28.8173C78.7983 29.8296 78.4322 30.6157 78.0876 31.1756C77.743 31.7571 77.3015 32.1879 76.763 32.4678C76.2462 32.7694 75.5677 32.9201 74.7278 32.9201H70.3019V29.0758H72.8217C73.4033 29.0758 73.8232 28.9788 74.0817 28.785C74.3401 28.5912 74.5878 28.2143 74.8247 27.6543L75.2447 26.5559L68.8481 9.854H73.694Z" fill="#232F37"/>
<path d="M51.6777 18.189C51.6777 16.4661 52.0223 14.9693 52.7115 13.6986C53.4222 12.4064 54.4022 11.4157 55.6513 10.7265C56.922 10.0158 58.3866 9.6604 60.0449 9.6604C61.7248 9.6604 63.2001 9.99422 64.4708 10.6619C65.763 11.308 66.7645 12.2341 67.4752 13.4401C68.2075 14.6247 68.5844 16.0246 68.6059 17.6399C68.6059 18.2214 68.5629 18.7382 68.4767 19.1905H56.4267V19.3197C56.5344 20.5258 56.922 21.4734 57.5897 22.1626C58.2573 22.8518 59.1727 23.1964 60.3357 23.1964C61.2618 23.1964 62.0263 23.0026 62.6294 22.6149C63.2539 22.2057 63.6632 21.6134 63.857 20.8381H68.3475C68.1752 21.9365 67.7552 22.9272 67.0876 23.8102C66.4199 24.6932 65.5369 25.3932 64.4385 25.9101C63.3401 26.4054 62.0802 26.6531 60.6587 26.6531C58.8065 26.6531 57.202 26.3085 55.8452 25.6193C54.5099 24.9301 53.4761 23.9502 52.7438 22.6795C52.0331 21.3873 51.6777 19.8905 51.6777 18.189ZM64.0508 16.2184C63.9001 15.2062 63.4801 14.4308 62.7909 13.8924C62.1232 13.3325 61.2725 13.0525 60.2387 13.0525C59.248 13.0525 58.4081 13.3432 57.7189 13.9247C57.0513 14.4847 56.6528 15.2492 56.5236 16.2184H64.0508Z" fill="#232F37"/>
<path d="M40.3873 3.8457C43.0148 3.8457 45.0501 4.36259 46.493 5.39637C47.936 6.43014 48.6575 7.89466 48.6575 9.78991C48.6575 11.1898 48.2699 12.3205 47.4945 13.182C46.7192 14.0435 45.6208 14.6034 44.1993 14.8619C45.8792 15.0772 47.1715 15.6157 48.076 16.4771C49.0021 17.3386 49.4652 18.5447 49.4652 20.0954C49.4652 22.0768 48.7114 23.6382 47.2038 24.7796C45.6962 25.8996 43.564 26.4595 40.8072 26.4595H31.7939V3.8457H40.3873ZM36.6398 13.1497H40.5165C41.5503 13.1497 42.3579 12.902 42.9394 12.4067C43.5209 11.9113 43.8117 11.2437 43.8117 10.4037C43.8117 9.56377 43.5209 8.89613 42.9394 8.40078C42.3579 7.90543 41.5503 7.65775 40.5165 7.65775H36.6398V13.1497ZM36.6398 22.6152H40.8395C42.0026 22.6152 42.8963 22.3675 43.5209 21.8722C44.167 21.3768 44.4901 20.6876 44.4901 19.8046C44.4901 18.8785 44.167 18.1678 43.5209 17.6724C42.8748 17.1556 41.981 16.8971 40.8395 16.8971H36.6398V22.6152Z" fill="#232F37"/>
<path d="M153.383 2.94092C154.137 2.94092 154.761 3.18859 155.257 3.68394C155.752 4.15776 156 4.76079 156 5.49305C156 6.22531 155.752 6.83911 155.257 7.33446C154.761 7.82981 154.137 8.07749 153.383 8.07749C152.629 8.07749 151.994 7.82981 151.477 7.33446C150.982 6.83911 150.734 6.22531 150.734 5.49305C150.734 4.76079 150.982 4.15776 151.477 3.68394C151.994 3.18859 152.629 2.94092 153.383 2.94092ZM151.089 9.85429H155.644V26.4593H151.089V9.85429Z" fill="#232F37"/>
<path d="M149.327 22.6149V26.4592H147.001C144.912 26.4592 143.889 25.5547 143.932 23.7456C143.329 24.6932 142.586 25.4147 141.703 25.9101C140.82 26.4054 139.754 26.6531 138.504 26.6531C136.652 26.6531 135.155 26.2331 134.014 25.3932C132.894 24.5317 132.334 23.3256 132.334 21.775C132.334 20.0089 132.98 18.6521 134.272 17.7045C135.586 16.7353 137.481 16.2507 139.958 16.2507H143.253V15.4431C143.253 14.6893 142.973 14.097 142.413 13.6663C141.853 13.214 141.1 12.9879 140.152 12.9879C139.312 12.9879 138.623 13.1709 138.084 13.5371C137.546 13.9032 137.223 14.3985 137.115 15.0231H132.722C132.872 13.3217 133.626 12.0079 134.983 11.0818C136.34 10.1342 138.138 9.6604 140.378 9.6604C142.726 9.6604 144.535 10.1773 145.805 11.2111C147.098 12.2448 147.744 13.7417 147.744 15.7015V21.5488C147.744 21.958 147.83 22.238 148.002 22.3888C148.175 22.5395 148.444 22.6149 148.81 22.6149H149.327ZM143.253 19.2874H139.926C138.978 19.2874 138.235 19.4813 137.697 19.8689C137.18 20.2351 136.921 20.7627 136.921 21.4519C136.921 22.0334 137.137 22.4964 137.568 22.841C138.02 23.1856 138.623 23.3579 139.377 23.3579C140.561 23.3579 141.498 23.0241 142.187 22.3565C142.876 21.6673 143.232 20.7519 143.253 19.6105V19.2874Z" fill="#232F37"/>
<path fill-rule="evenodd" clip-rule="evenodd" d="M21.4256 4.11975C21.4256 6.35091 19.4921 8.15966 17.107 8.15966C16.2365 8.15966 15.323 8.26933 14.6564 8.79296L14.3469 9.0361C13.243 9.90321 12.9766 11.3591 13.048 12.7059C13.0535 12.8079 13.0562 12.9106 13.0562 13.0138C13.0562 14.015 13.339 15.0501 14.1478 15.7059L14.9234 16.3348C16.0828 17.2748 17.7152 17.4295 19.2495 17.4295C22.8919 17.4295 25.8446 20.1917 25.8446 23.599C25.8446 27.0063 22.8919 29.7685 19.2495 29.7685C15.6072 29.7685 12.6545 27.0063 12.6545 23.599C12.6545 22.4713 12.3606 21.2936 11.4496 20.5549L10.9723 20.1679C9.81578 19.2302 8.18128 19.0932 6.6511 19.1196C6.61019 19.1203 6.56919 19.1207 6.5281 19.1207C2.92273 19.1207 0 16.3866 0 13.0138C0 9.64109 2.92273 6.90698 6.5281 6.90698C7.0087 6.90698 7.47718 6.95552 7.92819 7.04778C9.15608 7.29875 10.5172 7.26073 11.4797 6.50474L11.9828 6.10955C12.5889 5.63343 12.7884 4.86004 12.7884 4.11975C12.7884 1.88858 14.7218 0.079834 17.107 0.079834C19.4921 0.079834 21.4256 1.88858 21.4256 4.11975Z" fill="#36A0D0"/>
</svg>
