<svg width="28" height="28" viewBox="0 0 28 28" fill="none" xmlns="http://www.w3.org/2000/svg">
<path fill-rule="evenodd" clip-rule="evenodd" d="M21.2346 6.72419C19.3143 4.80269 16.7604 3.74335 14.0398 3.74219C8.43158 3.74219 3.86875 8.30269 3.86758 13.9085C3.86525 15.6924 4.33308 17.4459 5.22442 18.9917L3.78125 24.2604L9.17358 22.8464C10.6658 23.6584 12.3364 24.0842 14.0351 24.0842H14.0398C19.6456 24.0842 24.2084 19.5225 24.2108 13.9167C24.2119 11.2007 23.1549 8.64685 21.2346 6.72419Z" stroke="#364954" stroke-width="1.5" stroke-linecap="round" stroke-linejoin="round"/>
<path d="M15.2812 15.8199L15.7549 15.3497C16.1901 14.9181 16.8784 14.8632 17.3801 15.2156C17.8654 15.5562 18.3041 15.8619 18.7124 16.1466C19.3611 16.5969 19.4393 17.5209 18.8804 18.0786L18.4616 18.4974" stroke="#364954" stroke-width="1.5" stroke-linecap="round" stroke-linejoin="round"/>
<path d="M9.5 9.54148L9.91883 9.12264C10.4765 8.56498 11.4005 8.64314 11.8508 9.29064C12.1343 9.69898 12.44 10.1376 12.7818 10.623C13.1342 11.1246 13.0805 11.813 12.6477 12.2481L12.1775 12.7218" stroke="#364954" stroke-width="1.5" stroke-linecap="round" stroke-linejoin="round"/>
<path d="M18.4554 18.4956C16.7276 20.2153 13.8237 18.7546 11.5312 16.4609" stroke="#364954" stroke-width="1.5" stroke-linecap="round" stroke-linejoin="round"/>
<path d="M11.5361 16.4632C9.24358 14.1696 7.78291 11.2669 9.50258 9.53906" stroke="#364954" stroke-width="1.5" stroke-linecap="round" stroke-linejoin="round"/>
<path d="M12.1797 12.7188C12.5519 13.3056 13.029 13.8866 13.568 14.4256L13.5704 14.4279C14.1094 14.9669 14.6904 15.4441 15.2772 15.8162" stroke="#364954" stroke-width="1.5" stroke-linecap="round" stroke-linejoin="round"/>
</svg>
