<svg xmlns="http://www.w3.org/2000/svg" viewBox="0 0 112.04 112.04"><defs><style>.cls-1{fill:#23b180;}.cls-2{fill:#fff;}</style></defs><g id="Слой_2" data-name="Слой 2"><g id="_1" data-name="1"><path class="cls-1" d="M112,56A56,56,0,1,1,56,0,56,56,0,0,1,112,56Z"/><path class="cls-2" d="M89.18,52a32.58,32.58,0,0,0-65.1-.6c0,.48,0,.95,0,1.43a31.93,31.93,0,0,0,4.68,16.68L22.84,86.81l18-5.73a32.62,32.62,0,0,0,48.31-28.3C89.19,52.5,89.18,52.23,89.18,52ZM56.62,80a27.4,27.4,0,0,1-15.07-4.5L31,78.8l3.42-10.09a26.9,26.9,0,0,1-5.22-15.94,25.44,25.44,0,0,1,.14-2.63,27.4,27.4,0,0,1,54.55.51c0,.7.09,1.41.09,2.12A27.32,27.32,0,0,1,56.62,80Z"/><path class="cls-2" d="M71.54,59.29c-.8-.39-4.73-2.31-5.46-2.57s-1.26-.4-1.8.39-2.06,2.58-2.53,3.11-.93.6-1.72.2a21.86,21.86,0,0,1-6.43-3.93A24.16,24.16,0,0,1,49.16,51c-.46-.79,0-1.22.35-1.61s.8-.93,1.2-1.39a3.86,3.86,0,0,0,.29-.38,9,9,0,0,0,.51-.94,1.44,1.44,0,0,0-.07-1.39c-.19-.4-1.79-4.3-2.46-5.88s-1.33-1.32-1.79-1.32-1-.07-1.53-.07a2.94,2.94,0,0,0-2.13,1,8.82,8.82,0,0,0-2.8,6.61,9.81,9.81,0,0,0,.41,2.7A18.2,18.2,0,0,0,44,53.81c.4.53,5.53,8.79,13.64,12s8.12,2.12,9.59,2S71.94,65.84,72.6,64a6.55,6.55,0,0,0,.47-3.77C72.87,59.89,72.34,59.69,71.54,59.29Z"/></g></g></svg>