<svg width="893" height="893" viewBox="0 0 893 893" fill="none" xmlns="http://www.w3.org/2000/svg">
<path opacity="0.7" d="M449.692 376.055L450.689 376.107L487.849 53.0952L457.038 376.774L458.024 376.93L528.744 59.5719L464.269 378.258L465.233 378.516L568.738 70.2903L471.305 380.489L472.237 380.847L607.393 85.1276L478.069 383.443L478.958 383.896L644.286 103.924L484.487 387.089L485.324 387.632L679.012 126.475L490.489 391.385L491.265 392.013L711.189 152.533L496.009 396.285L496.715 396.991L740.468 181.81L500.987 401.735L501.615 402.511L766.524 213.989L505.368 407.676L505.911 408.513L789.076 248.714L509.104 414.042L509.557 414.931L807.874 285.606L512.154 420.763L512.511 421.695L822.711 324.262L514.484 427.767L514.742 428.731L833.427 364.256L516.07 434.976L516.226 435.962L839.905 405.151L516.893 442.311L516.945 443.308L842.073 446.5L516.945 449.692L516.893 450.689L839.905 487.849L516.226 457.038L516.07 458.024L833.428 528.744L514.742 464.269L514.484 465.233L822.709 568.738L512.511 471.305L512.154 472.237L807.873 607.394L509.557 478.069L509.104 478.958L789.077 644.287L505.911 484.487L505.368 485.324L766.525 679.011L501.615 490.489L500.987 491.265L740.468 711.19L496.715 496.009L496.009 496.715L711.19 740.468L491.265 500.987L490.489 501.615L679.011 766.525L485.324 505.368L484.487 505.911L644.287 789.077L478.958 509.104L478.069 509.557L607.394 807.873L472.237 512.154L471.305 512.511L568.738 822.709L465.233 514.484L464.269 514.742L528.744 833.428L458.024 516.07L457.038 516.226L487.849 839.905L450.689 516.893L449.692 516.945L446.5 842.073L443.308 516.945L442.311 516.893L405.151 839.905L435.962 516.226L434.976 516.07L364.256 833.427L428.731 514.742L427.767 514.484L324.262 822.711L421.695 512.511L420.763 512.154L285.606 807.874L414.931 509.557L414.042 509.104L248.714 789.076L408.513 505.911L407.676 505.368L213.989 766.524L402.511 501.615L401.735 500.987L181.81 740.468L396.991 496.715L396.285 496.009L152.533 711.189L392.013 491.265L391.385 490.489L126.475 679.012L387.632 485.324L387.089 484.487L103.924 644.286L383.896 478.958L383.443 478.069L85.1276 607.393L380.847 472.237L380.489 471.305L70.2903 568.738L378.516 465.233L378.258 464.269L59.5719 528.744L376.93 458.024L376.774 457.038L53.0952 487.849L376.107 450.689L376.055 449.692L50.9275 446.5L376.055 443.308L376.107 442.311L53.0952 405.151L376.774 435.962L376.93 434.976L59.5732 364.256L378.258 428.731L378.516 427.767L70.2891 324.262L380.489 421.695L380.847 420.763L85.1264 285.606L383.443 414.931L383.896 414.042L103.925 248.714L387.089 408.513L387.632 407.676L126.476 213.989L391.385 402.511L392.013 401.735L152.533 181.811L396.285 396.991L396.991 396.285L181.811 152.533L401.735 392.013L402.511 391.385L213.989 126.476L407.676 387.632L408.513 387.089L248.714 103.925L414.042 383.896L414.931 383.443L285.606 85.1264L420.763 380.847L421.695 380.489L324.262 70.2891L427.767 378.516L428.731 378.258L364.256 59.5732L434.976 376.93L435.962 376.774L405.151 53.0952L442.311 376.107L443.308 376.055L446.5 50.9275L449.692 376.055Z" stroke="#90ED7B"/>
</svg>
